#define layout_im_width 15
#define layout_im_height 9
static unsigned char layout_im_bits[] = {
   0xff, 0x7f, 0x01, 0x40, 0xc9, 0x58, 0x41, 0x55, 0x49, 0x52, 0x49, 0x50,
   0x49, 0x50, 0x01, 0x40, 0xff, 0x7f };
