#define layout_threecol_width 15
#define layout_threecol_height 9
static unsigned char layout_threecol_bits[] = {
   0xff, 0x7f, 0x11, 0x44, 0x11, 0x44, 0x11, 0x44, 0x11, 0x44, 0x11, 0x44,
   0x11, 0x44, 0x11, 0x44, 0xff, 0x7f };
