#define layout_gimp_width 15
#define layout_gimp_height 9
static unsigned char layout_gimp_bits[] = {
   0xff, 0x7f, 0x01, 0x40, 0x01, 0x58, 0x21, 0x45, 0xe1, 0x45, 0xf5, 0x55,
   0xf9, 0x58, 0x01, 0x40, 0xff, 0x7f };
